<?xml version="1.0" encoding="utf-8"?>
<!-- Generator: Adobe Illustrator 19.1.0, SVG Export Plug-In . SVG Version: 6.00 Build 0)  -->
<svg version="1.1" id="Layer_1" xmlns="http://www.w3.org/2000/svg" xmlns:xlink="http://www.w3.org/1999/xlink" x="0px" y="0px"
	 viewBox="0 0 100 60" style="enable-background:new 0 0 100 60;" xml:space="preserve">
<style type="text/css">
	.st0{fill-rule:evenodd;clip-rule:evenodd;fill:#FFFFFF;}
</style>
<g>
	<path class="st0" d="M0,0v60h100V0H0z M35.2,46.1h-4c-1,0-1.7-0.8-2-1.7l-3.9-10.7h-2.2v10.7c0,1-0.8,1.7-1.8,1.7h-3.6
		c-1,0-1.7-0.8-1.7-1.7V15.6c0-1,0.7-1.7,1.7-1.8c0,0,3.8-0.2,8.4-0.2c6.3,0,9.3,3.3,9.3,9.7V24c0,4.2-1.3,7.1-3.7,8.5
		c0,0,0.6,0.5,0.9,1.3l4,10.2C37,45.1,36.2,46.1,35.2,46.1z M61.7,30.8v13.6c0,1-0.7,1.7-1.4,1.7h-4.2c-0.9,0-1.5-0.6-2-1.7
		l-6.7-15.8v15.8c0,1-0.8,1.7-1.7,1.7H42c-0.9,0-1.6-0.8-1.6-1.7V15.6c0-1,0.7-1.7,1.6-1.7h4.3c1,0,1.5,0.7,2,1.7l6.4,15.1V15.6
		c0-1,0.7-1.7,1.6-1.7h3.8c0.9,0,1.6,0.8,1.6,1.7V30.8z M85,44.5c0,1-0.8,1.7-1.8,1.7H67.6c-1,0-1.7-0.8-1.7-1.7v-3.8
		c0-0.5,0.2-0.9,0.5-1.4L76,20.4h-7.6c-1,0-1.8-0.7-1.8-1.7v-3.2c0-1,0.8-1.7,1.8-1.7h14.7c1,0,1.7,0.8,1.7,1.7v3.9
		c0,0.5-0.2,0.8-0.5,1.4l-9.7,18.7h8.6c1,0,1.8,0.7,1.8,1.7V44.5z"/>
	<path class="st0" d="M25.2,19.9c-1,0-2,0-2,0v7.7h1.7c2.7,0,3.7-0.8,3.7-3.4v-1.5C28.5,20.6,27.6,19.9,25.2,19.9z"/>
</g>
</svg>
