<?xml version="1.0" encoding="utf-8"?>
<!-- Generator: Adobe Illustrator 19.1.0, SVG Export Plug-In . SVG Version: 6.00 Build 0)  -->
<svg version="1.1" id="Layer_1" xmlns="http://www.w3.org/2000/svg" xmlns:xlink="http://www.w3.org/1999/xlink" x="0px" y="0px"
	 viewBox="0 0 40 60" style="enable-background:new 0 0 40 60;" xml:space="preserve">
<style type="text/css">
	.st0{fill-rule:evenodd;clip-rule:evenodd;fill:#D24141;}
	.st1{fill-rule:evenodd;clip-rule:evenodd;fill:#FFFFFF;}
</style>
<rect class="st0" width="40" height="60"/>
<path class="st1" d="M22.8,28.6c0.3-0.3,0.5-0.7,0.5-1.4c0.1-1.9-1.4-3.8-4.7-3.7c-1.8,0.1-5,1.9-5,5.9c0,4.1,3.1,7.1,7.1,7.3
	c4.8,0.2,8.2-3.2,9.3-6.3c0.2-0.6,0.3-0.7,0.4-0.7c0.1,0,0.3,0.2,0.1,1.3c-0.7,3.8-3.7,8.6-10,8.8c-6.5,0.2-11-5.2-10.7-10.9
	c0.4-6.4,5.9-9.3,10.2-8.8c4.5,0.5,7,3.8,6.6,7.7c-0.4,3.9-4,6-7,4.9c-3.1-1.2-2.8-4.9-1-6c1.5-0.9,4-0.3,3.7,1.8
	C22.4,28.8,22.6,28.9,22.8,28.6z M29.1,41c0.3-0.6,0.2-0.8,0.1-0.8c-0.1,0-0.2,0.1-0.4,0.3c-4.3,3.7-10.3,4.3-15.2,1.1
	c-0.9-0.6-1.8-1.3-2.5-2.1c-0.2-0.2-0.3-0.3-0.5-0.3c-0.1,0-0.2,0.2,0,0.6c0.8,1.9,2.2,3.6,4,4.8C19.5,47.7,26.1,46.2,29.1,41z
	 M10.7,18.9c-0.3,0.6-0.2,0.8-0.1,0.8c0.1,0,0.2-0.1,0.4-0.3c4.2-3.7,10.8-4,15-1.1c0.9,0.6,1.8,1.4,2.5,2.2
	c0.2,0.2,0.3,0.3,0.4,0.3c0.1,0,0.2-0.2,0-0.6c-0.7-1.7-1.9-3.6-3.7-4.8C20.3,12.2,13.7,13.8,10.7,18.9z M14.2,48.3
	c0.4,0.5,1.2,1.3,1.9,1.8c3.2,2,7.5,1.1,9.8-1.7c0.3-0.4,0.1-0.4-0.1-0.4c-3.5,1.7-7.5,2.1-11.6-0.1C14.1,47.8,13.9,47.9,14.2,48.3z
	 M25.6,11.7c-0.4-0.5-1.2-1.3-1.9-1.8c-3.2-2-7.5-1.2-9.8,1.6c-0.4,0.5-0.1,0.4,0.1,0.4c3.5-1.7,7.5-2,11.6,0.2
	C25.7,12.2,26,12.3,25.6,11.7z"/>
</svg>
